{
	"asset":{
		"generator":"Khronos glTF Blender I/O v4.2.70",
		"version":"2.0"
	},
	"scene":0,
	"scenes":[
		{
			"extras":{
				"vs":{
					"export_list":[
						{
							"name":"Collection 1.dmx",
							"collection":null,
							"ob_type":"COLLECTION",
							"icon":"GROUP"
						}
					]
				},
				"scatter_properties":{},
				"batch_export":{
					"file_format":6,
					"apply_mods":1,
					"gltf_preset":"NO_PRESET",
					"set_scale":1,
					"prefix":"",
					"directory":"//batchgltf\\",
					"mode":1,
					"suffix":""
				},
				"assets used":{}
			},
			"name":"Scene",
			"nodes":[
				0
			]
		}
	],
	"nodes":[
		{
			"mesh":0,
			"name":"Bunny"
		}
	],
	"materials":[
		{
			"doubleSided":true,
			"name":"RandomPBRMaterial.023",
			"pbrMetallicRoughness":{
				"baseColorTexture":{
					"index":0
				},
				"metallicFactor":0.45168018341064453,
				"roughnessFactor":0.47759193181991577
			}
		}
	],
	"meshes":[
		{
			"name":"bunny",
			"primitives":[
				{
					"attributes":{
						"POSITION":0,
						"NORMAL":1
					},
					"indices":2,
					"material":0
				}
			]
		}
	],
	"textures":[
		{
			"sampler":0,
			"source":0
		}
	],
	"images":[
		{
			"mimeType":"image/png",
			"name":"uv_debug",
			"uri":"uv_debug.png"
		}
	],
	"accessors":[
		{
			"bufferView":0,
			"componentType":5126,
			"count":28153,
			"max":[
				1.9300049543380737,
				1.9060360193252563,
				1.5104337930679321
			],
			"min":[
				-1.9466784000396729,
				-1.9330693483352661,
				-1.4951633214950562
			],
			"type":"VEC3"
		},
		{
			"bufferView":1,
			"componentType":5126,
			"count":28153,
			"type":"VEC3"
		},
		{
			"bufferView":2,
			"componentType":5123,
			"count":168906,
			"type":"SCALAR"
		}
	],
	"bufferViews":[
		{
			"buffer":0,
			"byteLength":337836,
			"byteOffset":0,
			"target":34962
		},
		{
			"buffer":0,
			"byteLength":337836,
			"byteOffset":337836,
			"target":34962
		},
		{
			"buffer":0,
			"byteLength":337812,
			"byteOffset":675672,
			"target":34963
		}
	],
	"samplers":[
		{
			"magFilter":9729,
			"minFilter":9987
		}
	],
	"buffers":[
		{
			"byteLength":1013484,
			"uri":"Bunny.bin"
		}
	]
}
